# xmcd
#
# Track frame offsets:
#       150
#       22604
#       27065
#       35410
#       51937
#       68479
#       85596
#       95725
#       98370
#       123516
#       143342
#       181152
#       209124
#
# Disc length: 3181 seconds
#
# Revision: 1
# Processed by: cddbd v1.4PL0 Copyright (c) Steve Scherf et al.
# Submitted via: MusiCat 1.1
#
DISCID=990c6b0d
DTITLE=Corrie van Bingsbergen - Kado Uit De Hel!
DYEAR=1900
DGENRE=
TTITLE0=Kado Uit De Hel!
TTITLE1=Ogenschijnlijk I
TTITLE2=Ogenschijnlijk II
TTITLE3=Vuilvlerk
TTITLE4=Adem
TTITLE5=Huilebalk
TTITLE6=Een GGesprek
TTITLE7=De Weg Naar Zoeken (I)
TTITLE8=Nightstroll
TTITLE9=Een Kwestie Van Tijd
TTITLE10=Betty Blue
TTITLE11=Aangaande Romeo and Jullia
TTITLE12=De Tijd Liegt
EXTD=\n\n
EXTT0=
EXTT1=
EXTT2=
EXTT3=
EXTT4=
EXTT5=
EXTT6=
EXTT7=
EXTT8=
EXTT9=
EXTT10=
EXTT11=
EXTT12=
PLAYORDER=
